HIERARCHY
ROOT Hips
{
    OFFSET 0.000000 0.000000 0.000000
    CHANNELS 6 Xposition Yposition Zposition Zrotation Xrotation Yrotation
    JOINT Spine
    {
        OFFSET -0.000000 7.750029 0.000000
        CHANNELS 3 Zrotation Xrotation Yrotation
        JOINT Spine1
        {
            OFFSET -0.000000 19.767460 0.000000
            CHANNELS 3 Zrotation Xrotation Yrotation
            JOINT Neck
            {
                OFFSET -0.000000 19.686279 1.789662
                CHANNELS 3 Zrotation Xrotation Yrotation
                JOINT Head
                {
                    OFFSET -0.000000 13.231757 -1.890251
                    CHANNELS 3 Zrotation Xrotation Yrotation
                    End Site
                    {
                        OFFSET -0.000000 23.628138 0.000000
                    }
                }
            }
            JOINT LeftShoulder
            {
                OFFSET 3.736819 16.910755 -0.280982
                CHANNELS 3 Zrotation Xrotation Yrotation
                JOINT LeftArm
                {
                    OFFSET 13.626117 0.000000 0.000000
                    CHANNELS 3 Zrotation Xrotation Yrotation
                    JOINT LeftForeArm
                    {
                        OFFSET 31.364786 0.000000 0.000000
                        CHANNELS 3 Zrotation Xrotation Yrotation
                        JOINT LeftHand
                        {
                            OFFSET 23.389509 0.000000 0.000000
                            CHANNELS 3 Zrotation Xrotation Yrotation
                            End Site
                            {
                                OFFSET 14.176883 0.000000 0.000000
                            }
                        }
                    }
                }
            }
            JOINT RightShoulder
            {
                OFFSET -3.821718 16.910755 -0.280982
                CHANNELS 3 Zrotation Xrotation Yrotation
                JOINT RightArm
                {
                    OFFSET -13.626117 0.000000 0.000000
                    CHANNELS 3 Zrotation Xrotation Yrotation
                    JOINT RightForeArm
                    {
                        OFFSET -31.364786 0.000000 0.000000
                        CHANNELS 3 Zrotation Xrotation Yrotation
                        JOINT RightHand
                        {
                            OFFSET -23.389509 0.000000 0.000000
                            CHANNELS 3 Zrotation Xrotation Yrotation
                            End Site
                            {
                                OFFSET -14.176883 0.000000 0.000000
                            }
                        }
                    }
                }
            }
        }
    }
    JOINT LeftUpLeg
    {
        OFFSET 9.451255 0.000000 0.000000
        CHANNELS 3 Zrotation Xrotation Yrotation
        JOINT LeftLeg
        {
            OFFSET -0.000000 -41.898624 0.000000
            CHANNELS 3 Zrotation Xrotation Yrotation
            JOINT LeftFoot
            {
                OFFSET -0.000000 -38.481331 0.000000
                CHANNELS 3 Zrotation Xrotation Yrotation
                JOINT LeftToeBase
                {
                    OFFSET -0.000000 -6.143315 14.176883
                    CHANNELS 3 Zrotation Xrotation Yrotation
                    End Site
                    {
                        OFFSET -0.000000 0.000000 3.780502
                    }
                }
            }
        }
    }
    JOINT RightUpLeg
    {
        OFFSET -9.451255 0.000000 0.000000
        CHANNELS 3 Zrotation Xrotation Yrotation
        JOINT RightLeg
        {
            OFFSET -0.000000 -41.898624 0.000000
            CHANNELS 3 Zrotation Xrotation Yrotation
            JOINT RightFoot
            {
                OFFSET -0.000000 -38.481331 0.000000
                CHANNELS 3 Zrotation Xrotation Yrotation
                JOINT RightToeBase
                {
                    OFFSET -0.000000 -6.143315 14.176883
                    CHANNELS 3 Zrotation Xrotation Yrotation
                    End Site
                    {
                        OFFSET -0.000000 0.000000 3.780502
                    }
                }
            }
        }
    }
}
MOTION
Frames:    7
Frame Time:    0.010000
-6.693581    90.514580    -49.772942    -1.282828    3.063538    -179.878067    -0.380674    -2.859311    -0.414438    1.756324    6.069540    -0.498125    -4.376420    38.405293    4.469740    -4.667979    -28.457800    1.876310    9.495976    4.989872    -2.929106    -76.092934    52.328751    -12.644863    11.056109    -15.701833    -16.991184    -15.022280    -13.684458    -3.252578    -10.455659    8.015590    -2.092749    77.942467    42.235355    15.298984    -6.738029    -8.954772    10.919268    12.893172    -7.708017    5.441556    3.587365    3.472358    -0.389728    -2.078284    6.859258    -0.511128    -0.997745    -8.620957    17.571419    0.000000    0.000000    0.000000    -5.052459    5.099749    1.211080    2.156566    7.011234    10.858765    -0.112065    -12.628850    -24.947062    0.000000    0.000000    0.000000    
-6.710292    90.513374    -49.772179    -1.276520    3.084601    -179.897064    -0.390745    -2.845773    -0.425962    1.783832    6.072046    -0.510902    -4.420971    38.383099    4.495256    -4.655638    -28.398397    1.900986    9.486074    4.996430    -2.946621    -76.057709    52.351360    -12.704794    11.005598    -15.693682    -16.948303    -15.007034    -13.681023    -3.308169    -10.486505    8.055289    -2.171446    77.915047    42.196274    15.390719    -6.800672    -9.008160    10.949616    12.947387    -7.757117    5.389368    3.568844    3.499546    -0.340949    -2.057970    6.855827    -0.483132    -1.132502    -8.718823    17.573120    0.000000    0.000000    0.000000    -5.048946    5.094691    1.195513    2.139412    7.072196    10.874846    -0.134837    -12.672746    -24.910421    0.000000    0.000000    0.000000    
-6.725697    90.515480    -49.767555    -1.276122    3.061586    -179.901138    -0.400766    -2.882776    -0.440780    1.786825    6.082866    -0.525671    -4.335844    38.318058    4.451878    -4.785571    -28.246954    1.834603    9.536202    4.962255    -2.999910    -76.147011    52.356735    -12.679161    10.975749    -15.588926    -16.862053    -14.987418    -13.582432    -3.355390    -10.474902    8.101158    -2.227337    77.844254    42.081707    15.449718    -6.818353    -8.972998    11.566009    12.812106    -7.870614    3.766623    3.569955    3.485735    -0.346009    -2.080749    6.835429    -0.485416    -1.123435    -8.706202    17.583431    0.000000    0.000000    0.000000    -5.063403    5.058084    1.208963    2.149858    7.089499    10.897450    -0.126212    -12.665302    -24.951986    0.000000    0.000000    0.000000    
-6.739117    90.513489    -49.764721    -1.275607    3.064962    -179.896378    -0.414983    -2.889000    -0.465033    1.790628    6.096371    -0.549990    -4.443722    38.413860    4.518177    -4.670815    -28.400545    1.912312    9.553137    4.971667    -2.991582    -76.104744    52.395119    -12.764246    10.943486    -15.591735    -16.793953    -15.005907    -13.591153    -3.392480    -10.470740    8.131767    -2.267255    77.763611    42.090851    15.551485    -6.778889    -9.120326    11.128922    12.821696    -7.884590    5.232052    3.557090    3.484284    -0.355131    -2.066986    6.840716    -0.444710    -1.139456    -8.723562    17.522400    0.000000    0.000000    0.000000    -5.073411    5.048138    1.218846    2.151966    7.112777    10.903647    -0.123602    -12.677753    -24.944828    0.000000    0.000000    0.000000    
-6.758401    90.512955    -49.766369    -1.277694    3.068616    -179.891022    -0.426825    -2.894672    -0.483190    1.803087    6.102014    -0.568535    -4.301391    38.298092    4.443954    -4.888149    -28.158607    1.799644    9.561300    4.951035    -3.015977    -76.119591    52.422031    -12.782880    10.917227    -15.629530    -16.719965    -15.062052    -13.632776    -3.436803    -10.481907    8.134130    -2.306656    77.748566    42.059380    15.578804    -6.695339    -9.318716    11.287958    12.453228    -8.118989    5.050052    3.546130    3.499268    -0.376935    -2.081009    6.816982    -0.444378    -1.144598    -8.715840    17.574068    0.000000    0.000000    0.000000    -5.076688    5.029391    1.171169    2.124158    7.164931    10.939558    -0.097343    -12.690018    -24.943085    0.000000    0.000000    0.000000    
-6.770048    90.512291    -49.765472    -1.281236    3.081385    -179.884811    -0.438506    -2.889413    -0.503939    1.796910    6.097836    -0.588598    -4.348109    38.339867    4.464865    -4.847340    -28.182255    1.823466    9.577034    4.980280    -3.035481    -76.069794    52.398819    -12.865856    10.805634    -15.453747    -16.665188    -14.555997    -13.464036    -3.658931    -10.481181    8.174754    -2.319789    77.699440    42.038818    15.645103    -6.831380    -9.251068    11.190405    12.735367    -8.011322    5.228803    3.540635    3.511540    -0.374840    -2.082000    6.818954    -0.470583    -0.963759    -8.634572    17.517668    0.000000    0.000000    0.000000    -5.089785    5.034358    1.174971    2.137218    7.164855    10.937546    -0.106241    -12.691875    -24.977903    0.000000    0.000000    0.000000    
-6.785096    90.516350    -49.763428    -1.273972    3.086120    -179.886230    -0.437258    -2.882457    -0.515651    1.803176    6.093218    -0.600747    -4.354834    38.299999    4.460397    -4.873554    -28.094675    1.812868    9.562907    4.995407    -3.017863    -75.997032    52.454391    -12.959824    10.769726    -15.413927    -16.595135    -14.598519    -13.431578    -3.680246    -10.507453    8.155423    -2.340127    77.708260    42.026695    15.640534    -6.788991    -9.421633    11.263037    12.555221    -8.205188    5.094276    3.547510    3.527256    -0.358049    -2.102416    6.793746    -0.424173    -0.957274    -8.621691    17.459976    0.000000    0.000000    0.000000    -5.088919    5.021268    1.167407    2.137127    7.209603    10.915436    -0.113271    -12.693289    -24.949665    0.000000    0.000000    0.000000    
